<svg xmlns="http://www.w3.org/2000/svg" enable-background="new 0 0 64 64" version="1.0" viewBox="0 0 64 64"><path fill="none" stroke="#231f20" stroke-linecap="round" stroke-linejoin="round" stroke-miterlimit="10" stroke-width="2" d="M48.28,49.24H15.72c-2.71,0-4.9-2.19-4.9-4.9V21.21c0-2.71,2.19-4.9,4.9-4.9h32.56c2.71,0,4.9,2.19,4.9,4.9
		v23.13C53.18,47.05,50.99,49.24,48.28,49.24z"/><path fill="none" stroke="#231f20" stroke-linecap="round" stroke-linejoin="round" stroke-miterlimit="10" stroke-width="2" d="M28.61 31.63c0 2.98-2.42 5.39-5.39 5.39s-5.39-2.41-5.39-5.39c0-2.98 2.41-5.39 5.39-5.39S28.61 28.65 28.61 31.63zM45.97 31.63c0 2.98-2.41 5.39-5.39 5.39-2.98 0-5.39-2.41-5.39-5.39 0-2.98 2.42-5.39 5.39-5.39C43.56 26.23 45.97 28.65 45.97 31.63zM10.82 41.32H8.44c-.93 0-1.69-.75-1.69-1.69V25.05c0-.93.75-1.69 1.69-1.69h2.38V41.32zM53.18 41.32h2.38c.93 0 1.69-.75 1.69-1.69V25.05c0-.93-.75-1.69-1.69-1.69h-2.38V41.32zM44.73 12.56H19.27c-1.16 0-2.1.94-2.1 2.1v1.65h29.68v-1.65C46.84 13.5 45.9 12.56 44.73 12.56z"/><rect width="18.84" height="3.74" x="22.58" y="49.24" fill="none" stroke="#231f20" stroke-linecap="round" stroke-linejoin="round" stroke-miterlimit="10" stroke-width="2"/><path fill="none" stroke="#231f20" stroke-linecap="round" stroke-linejoin="round" stroke-miterlimit="10" stroke-width="2" d="M42.73,52.98H21.27c-0.48,0-0.87,0.39-0.87,0.87v2.55c0,0.48,0.39,0.87,0.87,0.87h21.46
		c0.48,0,0.87-0.39,0.87-0.87v-2.55C43.6,53.37,43.21,52.98,42.73,52.98z"/><rect width="26.95" height="7.14" x="18.52" y="42.1" fill="none" stroke="#231f20" stroke-linecap="round" stroke-linejoin="round" stroke-miterlimit="10" stroke-width="2"/><line x1="17.16" x2="17.16" y1="16.31" y2="7.12" fill="none" stroke="#231f20" stroke-linecap="round" stroke-linejoin="round" stroke-miterlimit="10" stroke-width="2"/><circle cx="17.16" cy="4.65" r="2.47" fill="none" stroke="#231f20" stroke-linecap="round" stroke-linejoin="round" stroke-miterlimit="10" stroke-width="2"/><line x1="46.84" x2="46.84" y1="16.31" y2="7.12" fill="none" stroke="#231f20" stroke-linecap="round" stroke-linejoin="round" stroke-miterlimit="10" stroke-width="2"/><path fill="none" stroke="#231f20" stroke-linecap="round" stroke-linejoin="round" stroke-miterlimit="10" stroke-width="2" d="M49.31 4.65c0 1.36-1.11 2.47-2.47 2.47s-2.47-1.11-2.47-2.47 1.11-2.47 2.47-2.47S49.31 3.28 49.31 4.65zM9.8 61.86v-2.41c0-1.21.98-2.19 2.19-2.19h40.01c1.21 0 2.19.98 2.19 2.19v2.41"/></svg>