<svg xmlns="http://www.w3.org/2000/svg" enable-background="new 0 0 64 64" version="1.0" viewBox="0 0 64 64"><path fill="#b8d3fc" d="M48.28,49.24H15.72c-2.71,0-4.9-2.19-4.9-4.9V21.21c0-2.71,2.19-4.9,4.9-4.9h32.56c2.71,0,4.9,2.19,4.9,4.9
			v23.13C53.18,47.05,50.99,49.24,48.28,49.24z"/><path fill="#76ffed" d="M28.61 31.63c0 2.98-2.42 5.39-5.39 5.39s-5.39-2.41-5.39-5.39c0-2.98 2.41-5.39 5.39-5.39S28.61 28.65 28.61 31.63zM45.97 31.63c0 2.98-2.41 5.39-5.39 5.39-2.98 0-5.39-2.41-5.39-5.39 0-2.98 2.42-5.39 5.39-5.39C43.56 26.23 45.97 28.65 45.97 31.63z"/><path fill="#4e7cb0" d="M10.82 41.32H8.44c-.93 0-1.69-.75-1.69-1.69V25.05c0-.93.75-1.69 1.69-1.69h2.38V41.32zM53.18 41.32h2.38c.93 0 1.69-.75 1.69-1.69V25.05c0-.93-.75-1.69-1.69-1.69h-2.38V41.32zM44.73 12.56H19.27c-1.16 0-2.1.94-2.1 2.1v1.65h29.68v-1.65C46.84 13.5 45.9 12.56 44.73 12.56z"/><rect width="18.84" height="3.74" x="22.58" y="49.24" fill="#b8d3fc"/><path fill="#b8d3fc" d="M42.73,52.98H21.27c-0.48,0-0.87,0.39-0.87,0.87v2.55c0,0.48,0.39,0.87,0.87,0.87h21.46
			c0.48,0,0.87-0.39,0.87-0.87v-2.55C43.6,53.37,43.21,52.98,42.73,52.98z"/><rect width="26.95" height="7.14" x="18.52" y="42.1" fill="#76ffed"/><circle cx="17.16" cy="4.65" r="2.47" fill="#b8d3fc"/><path fill="#b8d3fc" d="M49.31,4.65c0,1.36-1.11,2.47-2.47,2.47s-2.47-1.11-2.47-2.47s1.11-2.47,2.47-2.47S49.31,3.28,49.31,4.65z"/><path fill="#4e7cb0" d="M9.8,61.86v-2.41c0-1.21,0.98-2.19,2.19-2.19h40.01c1.21,0,2.19,0.98,2.19,2.19v2.41H9.8z"/><path d="M48.28,50.24H15.72c-3.25,0-5.9-2.65-5.9-5.9V21.21c0-3.25,2.65-5.9,5.9-5.9h32.56c3.25,0,5.9,2.65,5.9,5.9v23.13
			C54.18,47.59,51.53,50.24,48.28,50.24z M15.72,17.31c-2.15,0-3.9,1.75-3.9,3.9v23.13c0,2.15,1.75,3.9,3.9,3.9h32.56
			c2.15,0,3.9-1.75,3.9-3.9V21.21c0-2.15-1.75-3.9-3.9-3.9H15.72z"/><path d="M23.22 38.02c-3.53 0-6.39-2.87-6.39-6.39s2.87-6.39 6.39-6.39c3.53 0 6.39 2.87 6.39 6.39S26.74 38.02 23.22 38.02zM23.22 27.23c-2.42 0-4.39 1.97-4.39 4.39s1.97 4.39 4.39 4.39 4.39-1.97 4.39-4.39S25.64 27.23 23.22 27.23zM40.58 38.02c-3.53 0-6.39-2.87-6.39-6.39s2.87-6.39 6.39-6.39c3.53 0 6.39 2.87 6.39 6.39S44.1 38.02 40.58 38.02zM40.58 27.23c-2.42 0-4.39 1.97-4.39 4.39s1.97 4.39 4.39 4.39 4.39-1.97 4.39-4.39S43 27.23 40.58 27.23zM10.82 42.32H8.44c-1.48 0-2.69-1.21-2.69-2.69V25.05c0-1.48 1.21-2.69 2.69-2.69h2.38c.55 0 1 .45 1 1v17.95C11.82 41.87 11.37 42.32 10.82 42.32zM8.44 24.37c-.38 0-.69.31-.69.69v14.58c0 .38.31.69.69.69h1.38V24.37H8.44zM55.56 42.32h-2.38c-.55 0-1-.45-1-1V23.37c0-.55.45-1 1-1h2.38c1.48 0 2.69 1.21 2.69 2.69v14.58C58.25 41.12 57.04 42.32 55.56 42.32zM54.18 40.32h1.38c.38 0 .69-.31.69-.69V25.05c0-.38-.31-.69-.69-.69h-1.38V40.32zM46.84 17.31H17.16c-.55 0-1-.45-1-1v-1.65c0-1.71 1.39-3.1 3.1-3.1h25.47c1.71 0 3.1 1.39 3.1 3.1v1.65C47.84 16.86 47.39 17.31 46.84 17.31zM18.16 15.31h27.68v-.65c0-.61-.5-1.1-1.1-1.1H19.27c-.61 0-1.1.5-1.1 1.1V15.31zM41.42 53.98H22.58c-.55 0-1-.45-1-1v-3.74c0-.55.45-1 1-1h18.84c.55 0 1 .45 1 1v3.74C42.42 53.53 41.97 53.98 41.42 53.98zM23.58 51.98h16.84v-1.74H23.58V51.98z"/><path d="M42.73 58.26H21.27c-1.03 0-1.87-.84-1.87-1.87v-2.55c0-1.03.84-1.87 1.87-1.87h21.46c1.03 0 1.87.84 1.87 1.87v2.55C44.6 57.43 43.76 58.26 42.73 58.26zM21.4 56.26H42.6v-2.28H21.4V56.26zM42.73 53.98L42.73 53.98 42.73 53.98zM45.48 50.24H18.52c-.55 0-1-.45-1-1V42.1c0-.55.45-1 1-1h26.95c.55 0 1 .45 1 1v7.14C46.48 49.8 46.03 50.24 45.48 50.24zM19.52 48.24h24.95V43.1H19.52V48.24zM17.16 17.31c-.55 0-1-.45-1-1V7.12c0-.55.45-1 1-1s1 .45 1 1v9.19C18.16 16.86 17.71 17.31 17.16 17.31z"/><path d="M17.16 8.12c-1.91 0-3.47-1.56-3.47-3.47s1.56-3.47 3.47-3.47c1.91 0 3.47 1.56 3.47 3.47S19.07 8.12 17.16 8.12zM17.16 3.18c-.81 0-1.47.66-1.47 1.47s.66 1.47 1.47 1.47 1.47-.66 1.47-1.47S17.97 3.18 17.16 3.18zM46.84 17.31c-.55 0-1-.45-1-1V7.12c0-.55.45-1 1-1s1 .45 1 1v9.19C47.84 16.86 47.39 17.31 46.84 17.31z"/><path d="M46.84 8.12c-1.91 0-3.47-1.56-3.47-3.47s1.56-3.47 3.47-3.47c1.91 0 3.47 1.56 3.47 3.47S48.75 8.12 46.84 8.12zM46.84 3.18c-.81 0-1.47.66-1.47 1.47s.66 1.47 1.47 1.47 1.47-.66 1.47-1.47S47.65 3.18 46.84 3.18zM54.2 62.86c-.55 0-1-.45-1-1v-2.41c0-.66-.53-1.19-1.19-1.19H11.99c-.66 0-1.19.53-1.19 1.19v2.41c0 .55-.45 1-1 1s-1-.45-1-1v-2.41c0-1.76 1.43-3.19 3.19-3.19h40.01c1.76 0 3.19 1.43 3.19 3.19v2.41C55.2 62.41 54.75 62.86 54.2 62.86z"/></svg>